<svg width="110" height="20" viewBox="0 0 110 20" fill="none" xmlns="http://www.w3.org/2000/svg">
<path d="M1.288 5.777L0.736 5.6965C0.575 5.64283 0.46 5.56617 0.391 5.4665C0.329667 5.35917 0.299 5.2365 0.299 5.0985C0.299 4.94517 0.352667 4.81867 0.46 4.719C0.575 4.61933 0.7245 4.5695 0.9085 4.5695H1.472C1.64067 4.5695 1.7825 4.52733 1.8975 4.443C2.0125 4.351 2.11983 4.19 2.2195 3.96L2.737 2.6145C2.84433 2.4305 2.97083 2.28483 3.1165 2.1775C3.26217 2.07017 3.40783 2.0165 3.5535 2.0165C3.72217 2.0165 3.86017 2.07017 3.9675 2.1775C4.07483 2.28483 4.1285 2.44583 4.1285 2.6605V12.102C4.1285 12.5543 4.232 12.9032 4.439 13.1485C4.646 13.3938 4.9335 13.5165 5.3015 13.5165C5.51617 13.5165 5.70017 13.482 5.8535 13.413C6.00683 13.3363 6.13717 13.252 6.2445 13.16C6.35183 13.068 6.44767 12.9875 6.532 12.9185C6.624 12.8495 6.71217 12.815 6.7965 12.815C6.90383 12.815 6.98817 12.861 7.0495 12.953C7.1185 13.0373 7.14533 13.1638 7.13 13.3325C7.11467 13.6468 6.992 13.9497 6.762 14.241C6.532 14.5247 6.2215 14.7585 5.8305 14.9425C5.4395 15.1265 5.00633 15.2185 4.531 15.2185C3.69533 15.2185 3.03983 14.9962 2.5645 14.5515C2.08917 14.0992 1.8515 13.413 1.8515 12.493V6.6165C1.8515 6.3635 1.80933 6.17567 1.725 6.053C1.64833 5.92267 1.50267 5.83067 1.288 5.777ZM3.059 5.8115V4.5695H6.5205C6.7275 4.5695 6.88467 4.61167 6.992 4.696C7.09933 4.77267 7.153 4.8915 7.153 5.0525C7.153 5.27483 7.05333 5.45883 6.854 5.6045C6.66233 5.7425 6.35567 5.8115 5.934 5.8115H3.059ZM16.415 12.2168C16.415 12.6009 16.4476 12.8874 16.5127 13.0762C16.5778 13.265 16.6787 13.3789 16.8154 13.418C16.8935 13.444 16.9977 13.4733 17.1279 13.5059C17.5576 13.623 17.7724 13.7956 17.7724 14.0234C17.7724 14.349 17.5446 14.6452 17.0888 14.9121C16.6331 15.1725 16.1025 15.3027 15.497 15.3027C15.1976 15.3027 14.8785 15.127 14.54 14.7754C14.208 14.4173 14.0322 14.2383 14.0127 14.2383C13.9541 14.2383 13.8076 14.3132 13.5732 14.4629C12.7138 15.0228 11.8675 15.3027 11.0341 15.3027C10.0446 15.3027 9.24378 15.0163 8.6318 14.4434C8.01982 13.8639 7.71383 13.1087 7.71383 12.1777C7.71383 11.0905 8.10771 10.2441 8.89547 9.63867C9.68323 9.02669 10.7835 8.7207 12.1962 8.7207C12.4632 8.7207 12.7529 8.73698 13.0654 8.76953C13.3844 8.79557 13.7262 8.83789 14.0908 8.89648L14.1005 7.82227C14.1005 7.22331 13.9703 6.76432 13.7099 6.44531C13.4495 6.11979 13.0784 5.95703 12.5966 5.95703C12.2646 5.95703 11.9554 6.0319 11.6689 6.18164C11.3824 6.32487 11.1058 6.54948 10.8388 6.85547C10.7867 6.91406 10.7151 7.00195 10.624 7.11914C10.2138 7.63997 9.77763 7.90039 9.31539 7.90039C9.04846 7.90039 8.83362 7.81576 8.67086 7.64648C8.51461 7.4707 8.43648 7.23633 8.43648 6.94336C8.43648 6.30534 8.83036 5.76823 9.61812 5.33203C10.4059 4.89583 11.4183 4.67773 12.6552 4.67773C13.4104 4.67773 14.0582 4.77865 14.5986 4.98047C15.139 5.17578 15.5589 5.46224 15.8584 5.83984C16.0602 6.10026 16.2034 6.4388 16.288 6.85547C16.3727 7.27214 16.415 7.96549 16.415 8.93555V12.2168ZM14.0908 10.1953C13.8239 10.1367 13.5667 10.0944 13.3193 10.0684C13.0719 10.0358 12.8375 10.0195 12.6162 10.0195C11.887 10.0195 11.3173 10.1823 10.9072 10.5078C10.497 10.8333 10.292 11.2826 10.292 11.8555C10.292 12.3958 10.4677 12.8288 10.8193 13.1543C11.1774 13.4798 11.6559 13.6426 12.2548 13.6426C12.9189 13.6426 13.3909 13.4961 13.6709 13.2031C13.9573 12.9102 14.1005 12.4089 14.1005 11.6992L14.0908 10.1953ZM20.1361 15.0391C20.0254 15.1237 19.918 15.1855 19.8138 15.2246C19.7162 15.2637 19.6153 15.2832 19.5111 15.2832C19.446 15.2832 19.3776 15.2669 19.306 15.2344C19.2409 15.2083 19.1693 15.1628 19.0912 15.0977C18.8698 14.9089 18.6615 14.541 18.4662 13.9941C18.2709 13.4473 18.1732 12.9232 18.1732 12.4219C18.1732 12.207 18.2318 12.028 18.349 11.8848C18.4662 11.735 18.6094 11.6602 18.7787 11.6602C19.0912 11.6602 19.4069 11.9336 19.7259 12.4805C19.8822 12.7539 20.0124 12.959 20.1166 13.0957C20.3184 13.3626 20.5951 13.5742 20.9466 13.7305C21.2982 13.8867 21.6758 13.9648 22.0795 13.9648C22.5287 13.9648 22.8835 13.8542 23.1439 13.6328C23.4043 13.4049 23.5345 13.1022 23.5345 12.7246C23.5345 12.1517 22.9649 11.5918 21.8255 11.0449C21.5782 10.9277 21.3828 10.8333 21.2396 10.7617C20.1784 10.2344 19.4623 9.74935 19.0912 9.30664C18.7201 8.86393 18.5345 8.32031 18.5345 7.67578C18.5345 6.79036 18.8405 6.07096 19.4525 5.51758C20.0645 4.95768 20.8653 4.67773 21.8548 4.67773C22.0957 4.67773 22.3366 4.69076 22.5775 4.7168C22.8184 4.74284 23.0593 4.78516 23.3002 4.84375C23.489 4.75911 23.6485 4.69727 23.7787 4.6582C23.9089 4.61914 24.013 4.59961 24.0912 4.59961C24.4232 4.59961 24.7455 4.86654 25.058 5.40039C25.377 5.93424 25.5365 6.49414 25.5365 7.08008C25.5365 7.32096 25.4844 7.50977 25.3802 7.64648C25.2761 7.77669 25.1263 7.8418 24.931 7.8418C24.7748 7.8418 24.6218 7.77995 24.472 7.65625C24.3223 7.52604 24.1433 7.29492 23.9349 6.96289C23.681 6.54622 23.4173 6.25651 23.1439 6.09375C22.877 5.92448 22.5547 5.83984 22.1771 5.83984C21.78 5.83984 21.461 5.95052 21.2201 6.17188C20.9792 6.39323 20.8587 6.68294 20.8587 7.04102C20.8587 7.34701 20.9792 7.62044 21.2201 7.86133C21.4675 8.10221 22.0209 8.43424 22.8802 8.85742C22.8998 8.87044 22.9356 8.88997 22.9877 8.91602C24.8757 9.84701 25.8197 10.8626 25.8197 11.9629C25.8197 12.9069 25.4551 13.6979 24.7259 14.3359C24.0033 14.9674 23.0983 15.2832 22.0111 15.2832C21.7832 15.2832 21.513 15.2604 21.2005 15.2148C20.8946 15.1758 20.5397 15.1172 20.1361 15.0391ZM30.0877 5.61523V8.18359C30.0877 8.44401 30.1007 8.61328 30.1267 8.69141C30.1593 8.76302 30.2114 8.79883 30.283 8.79883C30.3481 8.79883 30.488 8.7207 30.7029 8.56445C30.9242 8.4082 31.1716 8.20638 31.4451 7.95898C31.9529 7.49023 32.2914 7.15495 32.4607 6.95312C32.6365 6.7513 32.7244 6.60156 32.7244 6.50391C32.7244 6.4388 32.5974 6.34115 32.3435 6.21094C32.0896 6.08073 31.9627 5.91146 31.9627 5.70312C31.9627 5.39714 32.1384 5.18555 32.49 5.06836C32.8481 4.94466 33.5121 4.88281 34.4822 4.88281C35.1137 4.88281 35.5824 4.94466 35.8884 5.06836C36.1944 5.19206 36.3474 5.38411 36.3474 5.64453C36.3474 5.96354 36.0968 6.1849 35.5955 6.30859C35.1007 6.43229 34.7491 6.55599 34.5408 6.67969C34.3064 6.82292 33.8962 7.1875 33.3103 7.77344L33.1443 7.93945C32.975 8.10872 32.8578 8.23568 32.7927 8.32031C32.7341 8.40495 32.7048 8.47005 32.7048 8.51562C32.7048 8.64583 33.0011 9.09831 33.5935 9.87305C33.6456 9.94466 33.6847 9.99674 33.7107 10.0293C34.3683 10.8757 34.9412 11.582 35.4295 12.1484C35.9242 12.7083 36.3018 13.0859 36.5623 13.2812C36.7315 13.3984 37.0343 13.5254 37.4705 13.6621C37.9067 13.7988 38.1248 14.0039 38.1248 14.2773C38.1248 14.5703 37.9653 14.7819 37.6462 14.9121C37.3337 15.0358 36.8129 15.0977 36.0837 15.0977C35.8494 15.0977 35.6313 15.0879 35.4295 15.0684C35.2276 15.0488 35.0844 15.026 34.9998 15C34.7003 14.8893 34.2283 14.4173 33.5837 13.584C33.408 13.3496 33.268 13.1673 33.1638 13.0371C33.1248 12.9915 33.0662 12.9167 32.988 12.8125C31.3149 10.6836 30.4132 9.61914 30.283 9.61914C30.2048 9.61914 30.1528 9.65495 30.1267 9.72656C30.1007 9.79167 30.0877 9.9349 30.0877 10.1562V10.5957C30.0877 11.6113 30.1072 12.3242 30.1462 12.7344C30.1918 13.138 30.2634 13.3984 30.3611 13.5156C30.4262 13.5872 30.615 13.6849 30.9275 13.8086C31.2465 13.9323 31.406 14.1243 31.406 14.3848C31.406 14.6452 31.2367 14.8307 30.8982 14.9414C30.5597 15.0456 29.9477 15.0977 29.0623 15.0977C28.0271 15.0977 27.3435 15.0423 27.0115 14.9316C26.686 14.821 26.5232 14.6159 26.5232 14.3164C26.5232 14.0885 26.6892 13.9128 27.0212 13.7891C27.1449 13.7435 27.2328 13.7077 27.2849 13.6816C27.4672 13.5775 27.5942 13.3626 27.6658 13.0371C27.7439 12.7051 27.783 12.1452 27.783 11.3574C27.783 11.1361 27.7797 10.7129 27.7732 10.0879C27.7667 9.46289 27.7634 8.9388 27.7634 8.51562V7.25586C27.7634 5.3418 27.7407 4.07878 27.6951 3.4668C27.656 2.84831 27.5844 2.47721 27.4802 2.35352C27.4086 2.27539 27.2166 2.19076 26.9041 2.09961C26.7608 2.06055 26.6502 2.02799 26.572 2.00195C26.3767 1.94336 26.2498 1.88151 26.1912 1.81641C26.1326 1.74479 26.1033 1.64714 26.1033 1.52344C26.1033 1.35417 26.1684 1.21419 26.2986 1.10352C26.4353 0.986328 26.7446 0.846354 27.2263 0.683594C27.6951 0.520833 28.1476 0.39388 28.5837 0.302734C29.0265 0.205078 29.3813 0.15625 29.6482 0.15625C29.85 0.15625 29.9933 0.221354 30.0779 0.351562C30.1625 0.47526 30.2048 0.696615 30.2048 1.01562C30.2048 1.29557 30.1853 1.94661 30.1462 2.96875C30.1072 3.99089 30.0877 4.87305 30.0877 5.61523ZM41.172 5.91797V6.03516C41.172 6.09375 41.1785 6.12956 41.1916 6.14258C41.2046 6.1556 41.2241 6.16211 41.2502 6.16211C41.2632 6.16211 41.2795 6.15885 41.299 6.15234C41.325 6.13932 41.3413 6.12956 41.3478 6.12305L41.5822 5.9082C41.6082 5.88216 41.6473 5.84635 41.6994 5.80078C42.5132 5.05208 43.3367 4.67773 44.1701 4.67773C44.4826 4.67773 44.7853 4.72656 45.0783 4.82422C45.3713 4.91536 45.6545 5.05534 45.9279 5.24414C46.1883 5.41341 46.4455 5.65104 46.6994 5.95703C46.9533 6.26302 47.1095 6.41602 47.1681 6.41602C47.2593 6.41602 47.3927 6.31185 47.5685 6.10352C47.7508 5.89518 47.9038 5.74219 48.0275 5.64453C48.4637 5.27344 48.8446 5.01953 49.1701 4.88281C49.5021 4.74609 49.8634 4.67773 50.2541 4.67773C51.0418 4.67773 51.7287 4.83724 52.3146 5.15625C52.9071 5.46875 53.34 5.91146 53.6134 6.48438C53.9129 7.10938 54.0627 8.42122 54.0627 10.4199C54.0692 10.8561 54.0724 11.1882 54.0724 11.416C54.0724 11.5592 54.0692 11.7448 54.0627 11.9727C54.0561 12.2005 54.0529 12.3568 54.0529 12.4414C54.0529 12.832 54.0854 13.112 54.1505 13.2812C54.2222 13.4505 54.3426 13.584 54.5119 13.6816C54.564 13.7077 54.6518 13.7435 54.7755 13.7891C55.1206 13.9128 55.2931 14.0885 55.2931 14.3164C55.2931 14.6094 55.1336 14.8112 54.8146 14.9219C54.4956 15.026 53.8088 15.0781 52.7541 15.0781C51.784 15.0781 51.133 15.0293 50.8009 14.9316C50.4754 14.8275 50.3127 14.6452 50.3127 14.3848C50.3127 14.1243 50.4917 13.9225 50.8498 13.7793C51.006 13.7207 51.1265 13.6686 51.2111 13.623C51.3804 13.5319 51.4976 13.3203 51.5627 12.9883C51.6343 12.6497 51.6701 12.0801 51.6701 11.2793C51.6701 9.26758 51.5334 7.99154 51.2599 7.45117C50.9865 6.91081 50.4917 6.64062 49.7755 6.64062C48.9878 6.64062 48.4214 6.98568 48.0763 7.67578C47.7378 8.35938 47.5685 9.52799 47.5685 11.1816V11.7383C47.5685 12.4674 47.6043 12.9492 47.6759 13.1836C47.7476 13.418 47.8713 13.584 48.047 13.6816C48.1121 13.7142 48.2 13.75 48.3107 13.7891C48.6427 13.9128 48.8088 14.0885 48.8088 14.3164C48.8088 14.6094 48.6525 14.8112 48.34 14.9219C48.0275 15.026 47.3504 15.0781 46.3088 15.0781C45.3582 15.0781 44.7202 15.0293 44.3947 14.9316C44.0692 14.8275 43.9064 14.6452 43.9064 14.3848C43.9064 14.1243 44.0789 13.9323 44.424 13.8086C44.5867 13.75 44.717 13.6947 44.8146 13.6426C44.9578 13.5579 45.0588 13.3789 45.1173 13.1055C45.1824 12.8255 45.215 12.2982 45.215 11.5234C45.215 9.36198 45.075 8.00781 44.7951 7.46094C44.5216 6.91406 44.0268 6.64062 43.3107 6.64062C42.9461 6.64062 42.6011 6.7513 42.2755 6.97266C41.9565 7.1875 41.7091 7.47721 41.5334 7.8418C41.3771 8.14779 41.2664 8.58073 41.2013 9.14062C41.1427 9.69401 41.1134 10.6087 41.1134 11.8848C41.1134 12.5098 41.1427 12.9395 41.2013 13.1738C41.2599 13.4017 41.3641 13.5579 41.5138 13.6426C41.5985 13.6882 41.7254 13.7435 41.8947 13.8086C42.2397 13.9323 42.4123 14.1243 42.4123 14.3848C42.4123 14.6452 42.243 14.8307 41.9045 14.9414C41.5724 15.0456 40.9604 15.0977 40.0685 15.0977C39.0334 15.0977 38.3498 15.0423 38.0177 14.9316C37.6922 14.821 37.5295 14.6159 37.5295 14.3164C37.5295 14.0885 37.6955 13.9128 38.0275 13.7891C38.1512 13.7435 38.2391 13.7077 38.2912 13.6816C38.467 13.584 38.5907 13.4212 38.6623 13.1934C38.7339 12.9655 38.7697 12.5944 38.7697 12.0801C38.7697 11.9564 38.7664 11.7285 38.7599 11.3965C38.7534 11.0645 38.7502 10.791 38.7502 10.5762V9.98047C38.7502 8.72396 38.7209 7.9069 38.6623 7.5293C38.6102 7.15169 38.5125 6.92057 38.3693 6.83594C38.2651 6.78385 38.1089 6.72526 37.9005 6.66016C37.4969 6.52995 37.2951 6.35091 37.2951 6.12305C37.2951 5.97331 37.3537 5.8431 37.4709 5.73242C37.5946 5.62174 37.8094 5.50456 38.1154 5.38086C38.6427 5.16602 39.1375 4.99674 39.5998 4.87305C40.0685 4.74284 40.4071 4.67773 40.6154 4.67773C40.7912 4.67773 40.9246 4.73633 41.0158 4.85352C41.1069 4.96419 41.159 5.13997 41.172 5.38086V5.91797ZM58.4673 9.12109C58.4673 10.4688 58.7505 11.5951 59.317 12.5C59.8899 13.4049 60.5865 13.8574 61.4068 13.8574C62.0709 13.8574 62.608 13.5775 63.0181 13.0176C63.4348 12.4577 63.6431 11.7188 63.6431 10.8008C63.6431 9.47266 63.3534 8.35938 62.774 7.46094C62.2011 6.55599 61.511 6.10352 60.7037 6.10352C60.0331 6.10352 59.4927 6.38021 59.0826 6.93359C58.6724 7.48047 58.4673 8.20964 58.4673 9.12109ZM60.9673 15.2832C59.5025 15.2832 58.2883 14.7852 57.3248 13.7891C56.3612 12.793 55.8795 11.5365 55.8795 10.0195C55.8795 8.48958 56.384 7.2168 57.3931 6.20117C58.4087 5.18555 59.6783 4.67773 61.2017 4.67773C62.6666 4.67773 63.8645 5.15299 64.7955 6.10352C65.733 7.05404 66.2017 8.27148 66.2017 9.75586C66.2017 11.3314 65.7004 12.6465 64.6978 13.7012C63.6952 14.7559 62.4517 15.2832 60.9673 15.2832ZM70.9384 5.9082C70.9905 5.86263 71.0621 5.79753 71.1533 5.71289C71.889 5.02279 72.6865 4.67773 73.5459 4.67773C74.0341 4.67773 74.5029 4.78516 74.9521 5C75.4078 5.20833 75.792 5.49479 76.1045 5.85938C76.417 6.23047 76.6383 6.67318 76.7685 7.1875C76.8987 7.70182 76.9638 8.50586 76.9638 9.59961V10.9766C76.9638 11.1458 76.9606 11.3672 76.9541 11.6406C76.9476 11.9141 76.9443 12.1061 76.9443 12.2168C76.9443 12.6986 76.9768 13.0404 77.042 13.2422C77.1136 13.4375 77.234 13.584 77.4033 13.6816C77.4684 13.7142 77.5563 13.75 77.667 13.7891C77.999 13.9128 78.165 14.0885 78.165 14.3164C78.165 14.6094 78.0088 14.8112 77.6963 14.9219C77.3838 15.026 76.7067 15.0781 75.665 15.0781C74.7145 15.0781 74.0765 15.0293 73.7509 14.9316C73.4319 14.8275 73.2724 14.6452 73.2724 14.3848C73.2724 14.1243 73.4417 13.9323 73.7802 13.8086C73.956 13.7435 74.083 13.6882 74.1611 13.6426C74.3173 13.5579 74.428 13.3691 74.4931 13.0762C74.5582 12.7767 74.5908 12.2591 74.5908 11.5234C74.5908 9.36198 74.4508 8.00781 74.1709 7.46094C73.8974 6.91406 73.4026 6.64062 72.6865 6.64062C72.3219 6.64062 71.9736 6.7513 71.6416 6.97266C71.316 7.1875 71.0654 7.47721 70.8896 7.8418C70.7399 8.13477 70.6357 8.54492 70.5771 9.07227C70.5185 9.59961 70.4892 10.5371 70.4892 11.8848C70.4892 12.5423 70.5153 12.9818 70.5673 13.2031C70.6259 13.418 70.7268 13.5645 70.8701 13.6426C70.9547 13.6882 71.0817 13.7435 71.2509 13.8086C71.596 13.9323 71.7685 14.1243 71.7685 14.3848C71.7685 14.6452 71.6025 14.8307 71.2705 14.9414C70.9384 15.0456 70.3297 15.0977 69.4443 15.0977C68.4091 15.0977 67.7223 15.0423 67.3838 14.9316C67.0517 14.821 66.8857 14.6159 66.8857 14.3164C66.8857 14.0885 67.0517 13.9128 67.3838 13.7891C67.5074 13.7435 67.5953 13.7077 67.6474 13.6816C67.8232 13.584 67.9469 13.4212 68.0185 13.1934C68.0901 12.9655 68.1259 12.5944 68.1259 12.0801C68.1259 11.9564 68.1227 11.7285 68.1162 11.3965C68.1097 11.0645 68.1064 10.791 68.1064 10.5762V9.52148C68.1064 8.45378 68.0804 7.75716 68.0283 7.43164C67.9762 7.10612 67.8818 6.90755 67.7451 6.83594C67.6409 6.78385 67.4814 6.72526 67.2666 6.66016C66.8564 6.52995 66.6513 6.35091 66.6513 6.12305C66.6513 5.97331 66.7132 5.83984 66.8369 5.72266C66.9671 5.59896 67.1787 5.47852 67.4716 5.36133C67.9729 5.16602 68.4612 5.00977 68.9365 4.89258C69.4117 4.77539 69.7633 4.7168 69.9912 4.7168C70.18 4.7168 70.3167 4.76888 70.4013 4.87305C70.486 4.9707 70.5283 5.13346 70.5283 5.36133V6.03516C70.5283 6.08724 70.5315 6.11979 70.538 6.13281C70.5511 6.14583 70.5739 6.1556 70.6064 6.16211C70.6194 6.16211 70.6357 6.15885 70.6552 6.15234C70.6813 6.13932 70.6976 6.12956 70.7041 6.12305L70.9384 5.9082ZM82.1205 5.61523V8.18359C82.1205 8.44401 82.1335 8.61328 82.1595 8.69141C82.1921 8.76302 82.2442 8.79883 82.3158 8.79883C82.3809 8.79883 82.5209 8.7207 82.7357 8.56445C82.9571 8.4082 83.2045 8.20638 83.4779 7.95898C83.9857 7.49023 84.3242 7.15495 84.4935 6.95312C84.6693 6.7513 84.7572 6.60156 84.7572 6.50391C84.7572 6.4388 84.6302 6.34115 84.3763 6.21094C84.1224 6.08073 83.9955 5.91146 83.9955 5.70312C83.9955 5.39714 84.1712 5.18555 84.5228 5.06836C84.8809 4.94466 85.5449 4.88281 86.515 4.88281C87.1465 4.88281 87.6153 4.94466 87.9212 5.06836C88.2272 5.19206 88.3802 5.38411 88.3802 5.64453C88.3802 5.96354 88.1296 6.1849 87.6283 6.30859C87.1335 6.43229 86.7819 6.55599 86.5736 6.67969C86.3392 6.82292 85.9291 7.1875 85.3431 7.77344L85.1771 7.93945C85.0078 8.10872 84.8907 8.23568 84.8255 8.32031C84.767 8.40495 84.7377 8.47005 84.7377 8.51562C84.7377 8.64583 85.0339 9.09831 85.6263 9.87305C85.6784 9.94466 85.7175 9.99674 85.7435 10.0293C86.4011 10.8757 86.974 11.582 87.4623 12.1484C87.9571 12.7083 88.3347 13.0859 88.5951 13.2812C88.7643 13.3984 89.0671 13.5254 89.5033 13.6621C89.9395 13.7988 90.1576 14.0039 90.1576 14.2773C90.1576 14.5703 89.9981 14.7819 89.6791 14.9121C89.3666 15.0358 88.8457 15.0977 88.1166 15.0977C87.8822 15.0977 87.6641 15.0879 87.4623 15.0684C87.2604 15.0488 87.1172 15.026 87.0326 15C86.7331 14.8893 86.2611 14.4173 85.6166 13.584C85.4408 13.3496 85.3008 13.1673 85.1966 13.0371C85.1576 12.9915 85.099 12.9167 85.0209 12.8125C83.3477 10.6836 82.446 9.61914 82.3158 9.61914C82.2377 9.61914 82.1856 9.65495 82.1595 9.72656C82.1335 9.79167 82.1205 9.9349 82.1205 10.1562V10.5957C82.1205 11.6113 82.14 12.3242 82.1791 12.7344C82.2246 13.138 82.2962 13.3984 82.3939 13.5156C82.459 13.5872 82.6478 13.6849 82.9603 13.8086C83.2793 13.9323 83.4388 14.1243 83.4388 14.3848C83.4388 14.6452 83.2696 14.8307 82.931 14.9414C82.5925 15.0456 81.9805 15.0977 81.0951 15.0977C80.0599 15.0977 79.3763 15.0423 79.0443 14.9316C78.7188 14.821 78.556 14.6159 78.556 14.3164C78.556 14.0885 78.722 13.9128 79.0541 13.7891C79.1778 13.7435 79.2657 13.7077 79.3177 13.6816C79.5 13.5775 79.627 13.3626 79.6986 13.0371C79.7767 12.7051 79.8158 12.1452 79.8158 11.3574C79.8158 11.1361 79.8125 10.7129 79.806 10.0879C79.7995 9.46289 79.7962 8.9388 79.7962 8.51562V7.25586C79.7962 5.3418 79.7735 4.07878 79.7279 3.4668C79.6888 2.84831 79.6172 2.47721 79.513 2.35352C79.4414 2.27539 79.2494 2.19076 78.9369 2.09961C78.7936 2.06055 78.683 2.02799 78.6048 2.00195C78.4095 1.94336 78.2826 1.88151 78.224 1.81641C78.1654 1.74479 78.1361 1.64714 78.1361 1.52344C78.1361 1.35417 78.2012 1.21419 78.3314 1.10352C78.4681 0.986328 78.7774 0.846354 79.2591 0.683594C79.7279 0.520833 80.1804 0.39388 80.6166 0.302734C81.0593 0.205078 81.4141 0.15625 81.681 0.15625C81.8828 0.15625 82.0261 0.221354 82.1107 0.351562C82.1953 0.47526 82.2377 0.696615 82.2377 1.01562C82.2377 1.29557 82.2181 1.94661 82.1791 2.96875C82.14 3.99089 82.1205 4.87305 82.1205 5.61523ZM92.8728 9.84375H92.7361C92.3585 9.84375 92.1339 9.87305 92.0623 9.93164C91.9906 9.99023 91.9548 10.1465 91.9548 10.4004C91.9548 11.2467 92.2576 11.9759 92.863 12.5879C93.4685 13.1934 94.2042 13.4961 95.0701 13.4961C95.4412 13.4961 95.7992 13.4408 96.1443 13.3301C96.4893 13.2194 96.8246 13.0501 97.1502 12.8223C97.2413 12.7572 97.365 12.6628 97.5212 12.5391C97.8598 12.2591 98.1235 12.1191 98.3123 12.1191C98.462 12.1191 98.5857 12.168 98.6834 12.2656C98.781 12.3633 98.8298 12.4805 98.8298 12.6172C98.8298 12.7799 98.7452 12.9818 98.5759 13.2227C98.4067 13.457 98.1788 13.6882 97.8923 13.916C97.2999 14.4043 96.7302 14.7559 96.1834 14.9707C95.6365 15.179 95.0408 15.2832 94.3962 15.2832C92.9509 15.2832 91.7433 14.7917 90.7732 13.8086C89.8097 12.819 89.3279 11.5951 89.3279 10.1367C89.3279 8.54818 89.8227 7.24284 90.8123 6.2207C91.8084 5.19206 93.0811 4.67773 94.6306 4.67773C95.9392 4.67773 96.9744 5.05208 97.7361 5.80078C98.5043 6.54297 98.8884 7.54883 98.8884 8.81836C98.8884 9.23503 98.8266 9.51172 98.7029 9.64844C98.5792 9.77865 98.2634 9.84375 97.7556 9.84375H92.8728ZM92.6677 8.68164H95.9685C96.2289 8.68164 96.4015 8.6556 96.4861 8.60352C96.5707 8.55143 96.613 8.45052 96.613 8.30078C96.613 7.64323 96.3917 7.0931 95.949 6.65039C95.5128 6.20117 94.9594 5.97656 94.2888 5.97656C93.6443 5.97656 93.1104 6.20117 92.6873 6.65039C92.2641 7.0931 92.0525 7.64323 92.0525 8.30078C92.0525 8.45052 92.0916 8.55143 92.1697 8.60352C92.2478 8.6556 92.4138 8.68164 92.6677 8.68164ZM106.076 12.3828C104.963 15.2018 104.045 17.0345 103.322 17.8809C102.6 18.7337 101.744 19.1602 100.754 19.1602C100.259 19.1602 99.8491 19.0202 99.5236 18.7402C99.1981 18.4603 99.0353 18.1055 99.0353 17.6758C99.0353 17.3372 99.1525 17.0443 99.3869 16.7969C99.6278 16.556 99.9175 16.4355 100.256 16.4355C100.425 16.4355 100.572 16.4616 100.695 16.5137C100.826 16.5658 100.933 16.6406 101.018 16.7383C101.089 16.8294 101.18 16.9564 101.291 17.1191C101.467 17.3861 101.62 17.5195 101.75 17.5195C102.095 17.5195 102.444 17.2689 102.795 16.7676C103.153 16.2728 103.332 15.7585 103.332 15.2246C103.332 14.6452 103.095 13.8184 102.619 12.7441C102.574 12.6335 102.538 12.5521 102.512 12.5C101.932 11.2109 101.389 10.0195 100.881 8.92578C100.38 7.83203 100.07 7.17122 99.9533 6.94336C99.8361 6.70247 99.5789 6.4974 99.1818 6.32812C99.1818 6.32161 99.1785 6.31836 99.172 6.31836C98.9377 6.22721 98.7814 6.13607 98.7033 6.04492C98.6186 5.94727 98.5763 5.82682 98.5763 5.68359C98.5763 5.38411 98.7554 5.17578 99.1134 5.05859C99.4715 4.94141 100.145 4.88281 101.135 4.88281C102.125 4.88281 102.785 4.93815 103.117 5.04883C103.449 5.15299 103.615 5.3418 103.615 5.61523C103.615 5.73242 103.593 5.83659 103.547 5.92773C103.508 6.01237 103.449 6.07747 103.371 6.12305C103.287 6.16862 103.163 6.22396 103 6.28906C102.74 6.39323 102.61 6.50391 102.61 6.62109C102.61 6.7513 102.678 7.00521 102.815 7.38281C102.951 7.75391 103.225 8.43424 103.635 9.42383C104.026 10.3613 104.309 10.9961 104.485 11.3281C104.66 11.6536 104.797 11.8164 104.895 11.8164C104.96 11.8164 105.07 11.6569 105.227 11.3379C105.383 11.0124 105.604 10.4785 105.891 9.73633C106.236 8.86393 106.486 8.1901 106.643 7.71484C106.799 7.23307 106.877 6.90755 106.877 6.73828C106.877 6.54297 106.685 6.33789 106.301 6.12305C105.923 5.9082 105.735 5.71289 105.735 5.53711C105.735 5.30273 105.888 5.13672 106.194 5.03906C106.506 4.9349 107.046 4.88281 107.815 4.88281C108.628 4.88281 109.179 4.93815 109.465 5.04883C109.751 5.15299 109.895 5.3418 109.895 5.61523C109.895 5.86263 109.703 6.03516 109.319 6.13281C109.123 6.1849 108.983 6.23372 108.899 6.2793C108.514 6.48763 108.104 7.16797 107.668 8.32031C107.544 8.65885 107.447 8.91927 107.375 9.10156L106.076 12.3828Z" fill="black"/>
</svg>
